<?xml version="1.0" encoding="utf-8"?>
<!-- Generator: Adobe Illustrator 19.2.1, SVG Export Plug-In . SVG Version: 6.00 Build 0)  -->
<svg version="1.1" id="Layer_1" xmlns="http://www.w3.org/2000/svg" xmlns:xlink="http://www.w3.org/1999/xlink" x="0px" y="0px"
	 viewBox="0 0 48 48" style="enable-background:new 0 0 48 48;" xml:space="preserve">
<style type="text/css">
	.st0{fill:#272727;}
</style>
<path class="st0" d="M13.9,9.6c1.4,0,2.7,0.1,3.9,0.4c1.2,0.2,2.1,0.7,3,1.2c0.8,0.6,1.5,1.3,1.9,2.2c0.5,0.9,0.7,2.1,0.7,3.5
	c0,1.5-0.3,2.7-1,3.7c-0.7,1-1.7,1.8-3,2.4c1.8,0.5,3.2,1.4,4.1,2.7c0.9,1.3,1.3,2.9,1.3,4.7c0,1.5-0.3,2.8-0.9,3.9
	c-0.6,1.1-1.4,2-2.3,2.7c-1,0.7-2.1,1.2-3.4,1.5c-1.2,0.3-2.5,0.5-3.9,0.5H0V9.6L13.9,9.6L13.9,9.6z M13.1,21.5
	c1.2,0,2.1-0.3,2.9-0.8c0.8-0.5,1.1-1.4,1.1-2.7c0-0.7-0.1-1.3-0.4-1.7c-0.3-0.4-0.6-0.8-1-1c-0.4-0.3-0.9-0.4-1.4-0.5
	c-0.5-0.1-1.1-0.1-1.7-0.1H6.5v6.9H13.1L13.1,21.5z M13.4,34.1c0.6,0,1.2-0.1,1.8-0.2c0.6-0.1,1.1-0.3,1.5-0.6
	c0.4-0.3,0.8-0.7,1.1-1.2c0.3-0.5,0.4-1.1,0.4-1.9c0-1.5-0.4-2.6-1.3-3.3c-0.9-0.6-2-1-3.4-1H6.5v8.1L13.4,34.1L13.4,34.1z"/>
<path class="st0" d="M34,34c0.9,0.9,2.1,1.3,3.8,1.3c1.2,0,2.2-0.3,3.1-0.9s1.4-1.2,1.6-1.9h5.2c-0.8,2.6-2.1,4.4-3.8,5.5
	c-1.7,1.1-3.8,1.7-6.2,1.7c-1.7,0-3.2-0.3-4.6-0.8c-1.4-0.5-2.5-1.3-3.5-2.3c-0.9-1-1.7-2.2-2.2-3.6c-0.5-1.4-0.8-2.9-0.8-4.6
	c0-1.6,0.3-3.1,0.8-4.5c0.5-1.4,1.3-2.6,2.2-3.6s2.1-1.8,3.5-2.4c1.3-0.6,2.8-0.9,4.5-0.9c1.8,0,3.4,0.3,4.8,1.1
	c1.3,0.7,2.5,1.6,3.3,2.8s1.5,2.5,1.9,4.1c0.4,1.5,0.5,3.1,0.4,4.8H32.5C32.5,31.6,33.1,33.2,34,34L34,34z M40.7,22.8
	c-0.7-0.8-1.9-1.2-3.3-1.2c-0.9,0-1.7,0.2-2.3,0.5c-0.6,0.3-1.1,0.7-1.5,1.2c-0.4,0.5-0.6,1-0.8,1.5c-0.2,0.5-0.2,1-0.3,1.4h9.6
	C42,24.7,41.4,23.6,40.7,22.8L40.7,22.8z"/>
<path class="st0" d="M31.3,12h12v2.9h-12C31.3,14.9,31.3,12,31.3,12z"/>
</svg>
