<?xml version="1.0" encoding="utf-8"?>
<!-- Generator: Adobe Illustrator 19.2.1, SVG Export Plug-In . SVG Version: 6.00 Build 0)  -->
<svg version="1.1" id="Layer_1" xmlns="http://www.w3.org/2000/svg" xmlns:xlink="http://www.w3.org/1999/xlink" x="0px" y="0px"
	 viewBox="0 0 48 48" style="enable-background:new 0 0 48 48;" xml:space="preserve">
<style type="text/css">
	.st0{fill:#272727;}
</style>
<path class="st0" d="M48,10.6c-1.8,0.8-3.7,1.3-5.7,1.5c2-1.2,3.6-3.1,4.3-5.4c-1.9,1.1-4,2-6.3,2.4C38.6,7.2,36.1,6,33.2,6
	c-5.4,0-9.8,4.4-9.8,9.8c0,0.8,0.1,1.5,0.3,2.2C15.5,17.7,8.2,13.8,3.3,7.8C2.5,9.2,2,10.9,2,12.7c0,3.4,1.7,6.4,4.4,8.2
	c-1.6,0-3.1-0.5-4.5-1.2c0,0,0,0.1,0,0.1c0,4.8,3.4,8.8,7.9,9.7c-0.8,0.2-1.7,0.3-2.6,0.3c-0.6,0-1.2-0.1-1.9-0.2
	c1.3,3.9,4.9,6.8,9.2,6.8c-3.4,2.6-7.6,4.2-12.2,4.2c-0.8,0-1.6,0-2.4-0.1C4.4,43.4,9.5,45,15.1,45c18.1,0,28-15,28-28
	c0-0.4,0-0.9,0-1.3C45,14.3,46.7,12.6,48,10.6L48,10.6z"/>
</svg>
