<?xml version="1.0" encoding="utf-8"?>
<!-- Generator: Adobe Illustrator 19.2.1, SVG Export Plug-In . SVG Version: 6.00 Build 0)  -->
<svg version="1.1" id="Layer_1" xmlns="http://www.w3.org/2000/svg" xmlns:xlink="http://www.w3.org/1999/xlink" x="0px" y="0px"
	 viewBox="0 0 336.8 160.2" style="enable-background:new 0 0 336.8 160.2;" xml:space="preserve">
<style type="text/css">
	.st0{fill:#929497;}
	.st1{fill:#58595B;}
	.st2{fill:#272727;}
</style>
<title>logo</title>
<g>
	<path class="st0" d="M58.6,155.6h-0.9v-13.4h7.4v0.9h-6.5v5.7h6.1v0.9h-6.1V155.6L58.6,155.6z"/>
	<path class="st0" d="M71.4,145.4c0.5,0,0.9,0,1.4,0.1l-0.2,0.9c-0.4-0.1-0.9-0.2-1.3-0.2c-0.8,0-1.6,0.4-2.1,1.1
		c-0.6,0.8-0.9,1.8-0.8,2.8v5.5h-0.9v-10h0.8l0.1,1.8h0.1c0.3-0.6,0.8-1.1,1.3-1.6C70.2,145.6,70.8,145.4,71.4,145.4z"/>
	<path class="st0" d="M83.2,150.6c0.1,1.4-0.3,2.7-1.2,3.8c-0.8,0.9-2,1.4-3.3,1.4c-0.8,0-1.6-0.2-2.3-0.6c-0.7-0.4-1.2-1.1-1.5-1.8
		c-0.4-0.9-0.6-1.8-0.5-2.8c-0.1-1.4,0.3-2.7,1.2-3.8c0.8-0.9,2-1.4,3.3-1.4c1.2-0.1,2.4,0.5,3.2,1.4
		C82.8,147.9,83.2,149.2,83.2,150.6z M75.2,150.6c-0.1,1.1,0.3,2.3,0.9,3.2c1.3,1.4,3.4,1.6,4.8,0.3c0.1-0.1,0.2-0.2,0.3-0.3
		c0.7-0.9,1-2.1,0.9-3.2c0.1-1.1-0.3-2.3-0.9-3.2c-0.6-0.8-1.6-1.2-2.6-1.2c-1-0.1-1.9,0.4-2.6,1.1
		C75.5,148.3,75.2,149.4,75.2,150.6z"/>
	<path class="st0" d="M93,155.6v-6.5c0.1-0.8-0.2-1.6-0.6-2.2c-0.5-0.5-1.3-0.8-2-0.7c-1-0.1-1.9,0.2-2.6,0.9
		c-0.6,0.8-0.9,1.9-0.8,2.9v5.5H86v-10h0.8l0.2,1.4H87c0.8-1.1,2.1-1.7,3.5-1.6c2.3,0,3.4,1.2,3.4,3.7v6.6L93,155.6L93,155.6z"/>
	<path class="st0" d="M100.3,155c0.5,0,1,0,1.5-0.1v0.7c-0.5,0.2-1,0.2-1.5,0.2c-0.7,0.1-1.5-0.2-2-0.7c-0.5-0.6-0.7-1.4-0.6-2.2
		v-6.5h-1.5v-0.5l1.5-0.4l0.5-2.2h0.5v2.4h2.9v0.8h-2.9v6.4c0,0.6,0.1,1.2,0.4,1.7C99.3,154.8,99.8,155,100.3,155z"/>
	<path class="st0" d="M103.6,150.9v-0.7h4.4v0.8L103.6,150.9L103.6,150.9z"/>
	<path class="st0" d="M118.6,155.6h-7.4v-13.4h7.4v0.9h-6.4v5.1h6.1v0.9h-6.1v5.8h6.4V155.6L118.6,155.6z"/>
	<path class="st0" d="M128.9,155.6v-6.5c0.1-0.8-0.2-1.6-0.6-2.2c-0.5-0.5-1.3-0.8-2-0.7c-1-0.1-1.9,0.2-2.6,0.9
		c-0.6,0.8-0.9,1.9-0.8,2.9v5.5h-0.9v-10h0.8l0.2,1.4h0.1c0.8-1.1,2.1-1.7,3.5-1.6c2.3,0,3.4,1.2,3.4,3.7v6.6L128.9,155.6
		L128.9,155.6z"/>
	<path class="st0" d="M137.2,145.4c0.6,0,1.3,0.1,1.9,0.4c0.6,0.3,1.1,0.8,1.4,1.4h0.1c0-0.8-0.1-1.5-0.1-2.3v-3.6h0.9v14.4h-0.6
		l-0.2-1.5h-0.1c-0.7,1.1-2,1.8-3.3,1.7c-1.2,0.1-2.4-0.4-3.2-1.3c-0.8-1.1-1.2-2.4-1.1-3.8c-0.1-1.4,0.3-2.8,1.1-4
		C134.8,145.8,135.9,145.3,137.2,145.4z M137.2,146.2c-1-0.1-1.9,0.4-2.5,1.1c-0.6,1-0.9,2.2-0.8,3.4c0,2.8,1.1,4.3,3.3,4.3
		c0.9,0.1,1.9-0.3,2.5-1c0.6-1,0.9-2.1,0.8-3.3v-0.2c0.1-1.2-0.2-2.3-0.8-3.3C139.1,146.5,138.1,146.1,137.2,146.2L137.2,146.2z"/>
	<path class="st0" d="M161.6,155.6h-0.8l-3-10.4c-0.2-0.9-0.4-1.6-0.6-2.1c-0.1,0.5-0.2,1.1-0.4,1.8s-1.2,4.2-3,10.7H153l-3.7-13.4
		h1l2.4,8.7l0.3,1c0.1,0.3,0.1,0.6,0.2,0.8s0.1,0.5,0.2,0.8s0.1,0.5,0.1,0.7c0.1-0.8,0.5-2.1,0.9-3.8l2.3-8.2h1l2.7,9.4
		c0.3,1.1,0.5,2,0.7,2.6c0.1-0.4,0.2-0.9,0.3-1.4c0.1-0.5,1.1-4,2.9-10.6h1L161.6,155.6z"/>
	<path class="st0" d="M171.9,155.8c-1.3,0.1-2.5-0.4-3.4-1.4c-0.9-1.1-1.3-2.4-1.2-3.8c-0.1-1.4,0.3-2.7,1.2-3.8
		c0.8-1,2-1.5,3.2-1.4c1.1,0,2.1,0.4,2.8,1.2c0.7,1,1.1,2.2,1,3.4v0.7h-7.2c-0.1,1.1,0.3,2.3,1,3.1c0.7,0.8,1.7,1.2,2.7,1.1
		c0.5,0,1,0,1.5-0.1c0.6-0.1,1.1-0.3,1.6-0.5v0.8c-0.5,0.2-1,0.4-1.6,0.5C173,155.8,172.5,155.8,171.9,155.8z M171.7,146.2
		c-0.9,0-1.7,0.3-2.3,1c-0.6,0.8-1,1.7-1,2.8h6.2c0.1-1-0.2-1.9-0.8-2.7C173.3,146.5,172.5,146.2,171.7,146.2z"/>
	<path class="st0" d="M183,145.4c1.2-0.1,2.4,0.4,3.2,1.3c0.8,1.1,1.2,2.5,1.1,3.9c0.1,1.4-0.3,2.7-1.1,3.9
		c-0.8,0.9-1.9,1.4-3.1,1.4c-0.7,0-1.3-0.1-1.9-0.4c-0.6-0.3-1-0.7-1.4-1.2h-0.1l-0.3,1.5h-0.6v-14.4h0.9v3.6c0,0.5,0,1,0,1.5v0.8
		h0.1c0.3-0.6,0.8-1,1.4-1.3C181.7,145.5,182.3,145.4,183,145.4z M183,146.2c-1-0.1-1.9,0.3-2.5,1c-0.6,1-0.9,2.2-0.8,3.4v0.2
		c-0.1,1.1,0.2,2.3,0.8,3.3c0.6,0.7,1.5,1.1,2.5,1c1,0.1,1.9-0.4,2.5-1.1c0.6-1,0.9-2.1,0.8-3.3C186.2,147.7,185.1,146.2,183,146.2
		L183,146.2z"/>
	<path class="st0" d="M206.3,148.8c0.1,1.9-0.5,3.8-1.8,5.1c-1.4,1.3-3.3,1.9-5.2,1.7H196v-13.4h3.6c3.2-0.4,6.2,1.8,6.6,5.1
		C206.3,147.8,206.3,148.3,206.3,148.8z M205.3,148.8c0.4-2.8-1.6-5.4-4.4-5.8c-0.5-0.1-0.9-0.1-1.4,0H197v11.8h2.2
		C203.2,154.8,205.2,152.8,205.3,148.8L205.3,148.8z"/>
	<path class="st0" d="M213.6,155.8c-1.3,0.1-2.5-0.4-3.4-1.4c-0.9-1.1-1.3-2.4-1.2-3.8c-0.1-1.4,0.3-2.7,1.2-3.8
		c0.8-1,2-1.5,3.2-1.4c1.1,0,2.1,0.4,2.8,1.2c0.7,1,1.1,2.2,1,3.4v0.7h-7.2c-0.1,1.1,0.3,2.3,1,3.1c0.7,0.8,1.7,1.2,2.7,1.1
		c0.5,0,1,0,1.5-0.1c0.6-0.1,1.1-0.3,1.6-0.5v0.8c-0.5,0.2-1,0.4-1.6,0.5C214.7,155.8,214.2,155.8,213.6,155.8z M213.4,146.2
		c-0.9,0-1.7,0.3-2.3,1c-0.6,0.8-1,1.7-1,2.8h6.2c0-1-0.2-2-0.8-2.8C215,146.5,214.2,146.2,213.4,146.2z"/>
	<path class="st0" d="M222.6,155.6l-3.9-10h0.9l2.6,6.8c0.3,0.7,0.6,1.5,0.8,2.3h0.1c0.3-0.8,0.5-1.6,0.8-2.3l2.6-6.8h1l-3.9,10
		H222.6L222.6,155.6z"/>
	<path class="st0" d="M233.6,155.8c-1.3,0.1-2.5-0.4-3.4-1.4c-0.9-1.1-1.3-2.4-1.2-3.8c-0.1-1.4,0.3-2.7,1.2-3.8
		c0.8-1,2-1.5,3.2-1.4c1.1,0,2.1,0.4,2.8,1.2c0.7,1,1.1,2.2,1,3.4v0.7h-7.2c-0.1,1.1,0.3,2.3,1,3.1c0.7,0.8,1.7,1.2,2.7,1.1
		c0.5,0,1,0,1.5-0.1c0.6-0.1,1.1-0.3,1.6-0.5v0.8c-0.5,0.2-1,0.4-1.6,0.5C234.7,155.8,234.2,155.8,233.6,155.8z M233.4,146.2
		c-0.9,0-1.7,0.3-2.3,1c-0.6,0.8-1,1.7-1,2.8h6.2c0-1-0.2-1.9-0.8-2.8C235,146.5,234.2,146.2,233.4,146.2z"/>
	<path class="st0" d="M241.3,155.6h-0.9v-14.4h0.9L241.3,155.6L241.3,155.6z"/>
	<path class="st0" d="M253.4,150.6c0.1,1.4-0.3,2.7-1.2,3.8c-0.8,0.9-2,1.4-3.3,1.4c-0.8,0-1.6-0.2-2.3-0.6
		c-0.7-0.4-1.2-1.1-1.5-1.8c-0.4-0.9-0.6-1.8-0.5-2.8c-0.1-1.4,0.3-2.7,1.2-3.8c0.8-0.9,2-1.4,3.3-1.4c1.2-0.1,2.4,0.5,3.2,1.4
		C253.1,147.9,253.5,149.2,253.4,150.6z M245.5,150.6c-0.1,1.1,0.3,2.3,0.9,3.2c1.3,1.4,3.4,1.6,4.8,0.3c0.1-0.1,0.2-0.2,0.3-0.3
		c0.7-0.9,1-2.1,0.9-3.2c0.1-1.1-0.3-2.3-0.9-3.2c-0.6-0.8-1.6-1.2-2.6-1.1c-1-0.1-1.9,0.4-2.6,1.1
		C245.8,148.3,245.4,149.5,245.5,150.6z"/>
	<path class="st0" d="M260.6,155.8c-1.4,0.1-2.7-0.6-3.4-1.7h-0.1v0.8c0,0.5,0,0.9,0,1.5v3.8h-0.9v-14.6h0.8l0.2,1.4h0.1
		c0.7-1.1,2-1.7,3.3-1.6c1.2-0.1,2.3,0.4,3.1,1.3c0.8,1.1,1.2,2.5,1.1,3.9c0.1,1.4-0.3,2.7-1.1,3.8
		C262.9,155.3,261.7,155.8,260.6,155.8z M260.6,155c0.9,0,1.8-0.4,2.4-1.1c0.6-0.9,0.9-2.1,0.8-3.2c0-2.9-1.1-4.4-3.2-4.4
		c-1-0.1-1.9,0.3-2.6,1c-0.6,0.9-0.9,2-0.8,3.1v0.3c-0.1,1.2,0.2,2.4,0.8,3.4C258.7,154.7,259.6,155.1,260.6,155L260.6,155z"/>
	<path class="st0" d="M271.7,155.8c-1.3,0.1-2.5-0.4-3.4-1.4c-0.9-1.1-1.3-2.4-1.2-3.8c-0.1-1.4,0.3-2.7,1.2-3.8
		c0.8-1,2-1.5,3.2-1.4c1.1,0,2.1,0.4,2.8,1.2c0.7,1,1.1,2.2,1,3.4v0.7H268c-0.1,1.1,0.3,2.3,1,3.1c0.7,0.8,1.7,1.2,2.7,1.1
		c0.5,0,1,0,1.5-0.1c0.6-0.1,1.1-0.3,1.6-0.5v0.8c-0.5,0.2-1,0.4-1.6,0.5C272.7,155.8,272.2,155.8,271.7,155.8z M271.4,146.2
		c-0.9,0-1.7,0.3-2.3,1c-0.6,0.8-1,1.7-1,2.8h6.2c0.1-1-0.2-1.9-0.8-2.7C273.1,146.5,272.3,146.2,271.4,146.2z"/>
	<path class="st0" d="M282.4,145.4c0.5,0,0.9,0,1.4,0.1l-0.2,0.9c-0.4-0.1-0.9-0.2-1.3-0.2c-0.8,0-1.6,0.4-2.1,1.1
		c-0.6,0.8-0.9,1.8-0.8,2.8v5.5h-1v-10h0.8l0.1,1.8h0.1c0.3-0.6,0.8-1.1,1.3-1.6C281.3,145.6,281.8,145.4,282.4,145.4z"/>
</g>
<g>
	<path class="st1" d="M11.2,129.8h-2v-26.5H0v-1.9h20.4v1.9h-9.2L11.2,129.8L11.2,129.8z"/>
	<path class="st1" d="M36.5,129.8l-0.5-3.3h-0.2c-0.9,1.2-2,2.2-3.3,2.9c-1.2,0.6-2.6,0.9-4,0.8c-1.8,0.1-3.5-0.5-4.8-1.6
		c-1.2-1.1-1.8-2.8-1.7-4.4c-0.1-1.9,0.9-3.8,2.6-4.8c1.7-1.1,4.2-1.7,7.4-1.8l4-0.1v-1.4c0.1-1.6-0.3-3.2-1.2-4.5
		c-1-1.1-2.5-1.7-3.9-1.5c-2.1,0-4.2,0.6-6.1,1.6l-0.7-1.7c2.1-1,4.5-1.6,6.9-1.6c1.9-0.1,3.8,0.5,5.2,1.8c1.1,1.2,1.7,3.1,1.7,5.6
		v14L36.5,129.8L36.5,129.8z M28.8,128.4c3.7,0.3,6.9-2.4,7.3-6.1c0-0.4,0-0.8,0-1.2v-2.1l-3.7,0.1c-3,0.1-5.1,0.6-6.3,1.4
		c-1.3,0.8-2,2.2-1.9,3.6c-0.1,1.2,0.4,2.3,1.2,3.1C26.3,128.1,27.5,128.5,28.8,128.4L28.8,128.4z"/>
	<path class="st1" d="M58.2,129.8v-13.7c0-2.1-0.4-3.7-1.3-4.6c-1.1-1-2.6-1.6-4.2-1.4c-2.5,0-4.4,0.6-5.5,1.9
		c-1.2,1.3-1.8,3.3-1.8,6.2v11.6h-1.9v-21.1h1.6l0.4,2.9h0.1c1.4-2.2,3.8-3.3,7.3-3.3c4.8,0,7.2,2.6,7.2,7.7v13.8L58.2,129.8
		L58.2,129.8z"/>
	<path class="st1" d="M80.4,129.8v-13.7c0-2.1-0.4-3.7-1.3-4.6c-1.1-1-2.6-1.6-4.2-1.4c-2.5,0-4.4,0.6-5.5,1.9
		c-1.2,1.3-1.7,3.3-1.7,6.2v11.6h-1.9v-21.1h1.6l0.4,2.9h0.1c1.4-2.2,3.8-3.3,7.3-3.3c4.8,0,7.2,2.6,7.2,7.7v13.8L80.4,129.8
		L80.4,129.8z"/>
	<path class="st1" d="M96.4,130.2c-2.7,0.2-5.3-0.9-7.2-2.8c-1.7-1.9-2.6-4.5-2.6-7.9c-0.1-2.9,0.7-5.8,2.5-8.1c1.6-2,4.1-3.1,6.7-3
		c2.3-0.1,4.4,0.9,5.9,2.6c1.5,2,2.3,4.5,2.2,7.1v1.6H88.8c0,2.9,0.7,5.1,2,6.6c1.5,1.6,3.5,2.4,5.7,2.3c1.1,0,2.1-0.1,3.2-0.2
		c1.2-0.3,2.3-0.6,3.5-1.1v1.7c-1.1,0.5-2.2,0.8-3.3,1.1C98.7,130.1,97.6,130.2,96.4,130.2z M95.9,110c-1.8-0.1-3.6,0.7-4.9,2
		c-1.3,1.6-2.1,3.7-2.2,5.8h13c0.1-2-0.4-4-1.6-5.7C99.2,110.7,97.6,110,95.9,110L95.9,110z"/>
	<path class="st1" d="M118.4,108.3c1,0,1.9,0.1,2.9,0.3l-0.4,1.8c-0.9-0.2-1.8-0.3-2.7-0.3c-1.8,0-3.4,0.8-4.4,2.3
		c-1.2,1.7-1.8,3.7-1.7,5.8v11.6h-1.9v-21h1.6l0.2,3.8h0.1c0.6-1.3,1.6-2.4,2.8-3.3C115.9,108.6,117.2,108.3,118.4,108.3z"/>
	<path class="st1" d="M159.7,129.8h-1.6l-6.2-21.8c-0.5-1.8-0.9-3.3-1.2-4.4c-0.2,1.1-0.5,2.4-0.9,3.9c-0.4,1.5-2.5,8.9-6.2,22.4
		h-1.7l-7.8-28.3h2.1l5,18.2l0.5,2c0.2,0.6,0.3,1.2,0.5,1.8s0.3,1.1,0.4,1.6c0.1,0.5,0.2,1,0.3,1.5c0.3-1.8,1-4.4,2-8l4.8-17.2h2.2
		l5.6,19.8c0.7,2.3,1.1,4.1,1.4,5.5c0.2-0.9,0.4-1.9,0.6-3s2.3-8.5,6-22.3h2L159.7,129.8z"/>
	<path class="st1" d="M187.4,119.2c0,3.4-0.8,6.1-2.5,8c-1.7,2-4.3,3-6.9,2.9c-1.7,0-3.4-0.4-4.9-1.3c-1.4-0.9-2.6-2.3-3.2-3.8
		c-0.8-1.8-1.2-3.8-1.1-5.8c0-3.4,0.8-6.1,2.5-8c1.7-1.9,4.3-3,6.9-2.9c2.6-0.1,5.1,1,6.8,2.9C186.6,113.2,187.4,115.9,187.4,119.2z
		 M170.8,119.2c-0.1,2.4,0.5,4.8,1.9,6.8c2.6,3,7.2,3.3,10.2,0.6c0.2-0.2,0.4-0.4,0.6-0.6c1.4-2,2.1-4.4,1.9-6.8
		c0.1-2.4-0.5-4.8-1.9-6.8c-1.3-1.6-3.3-2.5-5.4-2.4c-2.1-0.1-4.1,0.8-5.4,2.4C171.3,114.4,170.7,116.8,170.8,119.2L170.8,119.2z"/>
	<path class="st1" d="M209.4,119.2c0,3.4-0.8,6.1-2.5,8c-1.7,2-4.3,3-6.9,2.9c-1.7,0-3.4-0.4-4.9-1.3c-1.4-0.9-2.6-2.3-3.2-3.8
		c-0.8-1.8-1.1-3.8-1.1-5.7c0-3.4,0.8-6.1,2.5-8c1.7-1.9,4.3-3,6.9-2.9c2.6-0.1,5.1,1,6.8,2.9C208.6,113.2,209.4,115.9,209.4,119.2z
		 M192.8,119.2c-0.1,2.4,0.5,4.8,1.9,6.8c2.6,3,7.2,3.3,10.2,0.6c0.2-0.2,0.4-0.4,0.6-0.6c1.4-2,2.1-4.4,1.9-6.8
		c0.1-2.4-0.5-4.8-1.9-6.8c-1.3-1.6-3.3-2.5-5.4-2.4c-2.1-0.1-4.1,0.8-5.4,2.4C193.4,114.4,192.7,116.8,192.8,119.2L192.8,119.2z"/>
	<path class="st1" d="M221.8,108.3c1.4,0,2.8,0.2,4,0.8c1.2,0.7,2.3,1.6,3,2.8h0.1c-0.1-1.6-0.1-3.2-0.1-4.8v-7.6h1.9v30.1h-1.3
		l-0.5-3.2h-0.2c-1.5,2.3-4.1,3.7-6.9,3.6c-2.5,0.2-5-0.8-6.7-2.7c-1.5-1.8-2.3-4.4-2.3-7.9c0-3.6,0.8-6.4,2.3-8.3
		C216.8,109.2,219.3,108.2,221.8,108.3z M221.8,110.1c-2-0.1-4,0.8-5.2,2.4c-1.2,1.6-1.7,3.9-1.7,7c0,6,2.3,8.9,7,8.9
		c2.4,0,4.1-0.7,5.2-2.1s1.7-3.7,1.7-6.8v-0.3c0-3.3-0.5-5.6-1.6-7S224.3,110.1,221.8,110.1z"/>
	<path class="st1" d="M255.7,129.8l-4.6-14.1c-0.3-1-0.7-2.4-1.1-4.2h-0.1l-0.4,1.4l-0.9,2.8l-4.7,14H242l-6-21.1h2.1l3.4,12.2
		c0.8,3,1.3,5.2,1.5,6.7h0.1c0.8-3,1.3-5,1.7-6l4.3-12.8h1.7l4.1,12.8c0.9,3,1.5,5,1.7,6h0.1c0.1-0.8,0.6-3.1,1.5-6.7l3.2-12.1h1.9
		l-5.7,21.1L255.7,129.8L255.7,129.8z"/>
	<path class="st1" d="M284.5,119.2c0,3.4-0.8,6.1-2.5,8c-1.7,2-4.3,3-6.9,2.9c-1.7,0-3.4-0.4-4.9-1.3c-1.4-0.9-2.6-2.3-3.2-3.8
		c-0.8-1.8-1.2-3.8-1.1-5.8c0-3.4,0.8-6.1,2.5-8c1.7-1.9,4.3-3,6.9-2.9c2.6-0.1,5.1,1,6.8,2.9C283.7,113.2,284.5,115.9,284.5,119.2z
		 M267.9,119.2c-0.1,2.4,0.5,4.8,1.9,6.8c2.6,3,7.2,3.3,10.2,0.6c0.2-0.2,0.4-0.4,0.6-0.6c1.4-2,2.1-4.4,1.9-6.8
		c0.1-2.4-0.5-4.8-1.9-6.8c-1.3-1.6-3.3-2.5-5.4-2.4c-2.1-0.1-4.1,0.8-5.4,2.4C268.4,114.4,267.8,116.8,267.9,119.2z"/>
	<path class="st1" d="M297.4,108.3c1,0,1.9,0.1,2.9,0.3l-0.4,1.8c-0.9-0.2-1.8-0.3-2.7-0.3c-1.8,0-3.4,0.8-4.4,2.3
		c-1.2,1.7-1.8,3.7-1.7,5.8v11.6h-1.9v-21h1.6l0.2,3.8h0.1c0.6-1.3,1.6-2.4,2.8-3.3C294.9,108.6,296.2,108.3,297.4,108.3z"/>
	<path class="st1" d="M312.1,128.5c1.1,0,2.1-0.1,3.2-0.3v1.6c-1,0.3-2.1,0.5-3.2,0.5c-1.5,0.1-3-0.4-4.1-1.5c-1-1.4-1.5-3-1.3-4.7
		v-13.6h-3.1v-1.1l3.1-0.9l1-4.8h1v5.1h6.2v1.7h-6.2v13.3c-0.1,1.3,0.2,2.5,0.9,3.6C310.1,128.1,311.1,128.5,312.1,128.5z"/>
	<path class="st1" d="M334.9,129.8v-13.7c0-2.1-0.4-3.7-1.3-4.6c-1.1-1-2.6-1.6-4.1-1.4c-2.5,0-4.4,0.6-5.5,1.9
		c-1.2,1.3-1.7,3.3-1.7,6.2v11.6h-1.9V99.6h1.9v9.6l-0.1,2.7h0.1c0.7-1.2,1.8-2.1,3-2.8c1.4-0.6,2.9-0.9,4.5-0.8
		c4.8,0,7.2,2.6,7.2,7.7v13.8L334.9,129.8L334.9,129.8z"/>
</g>
<g>
	<path class="st2" d="M163,9.4h-6.8V17h-10.5V0h48.6v17h-10.5V9.4h-6.5l-0.1,42.2c0,0-14.1,2.8-14.1,0.8L163,9.4z"/>
	<polygon class="st2" points="185.3,30.8 185.3,38.7 189.9,38.7 184.3,66.9 184,66.9 176.8,35 170,52.5 163.1,35 156,66.9 
		155.6,66.9 150.1,38.7 154.6,38.7 154.6,30.8 133,30.8 133,38.7 136.9,38.7 137.6,41.5 147.6,86.2 162.6,86.2 170,54 177.3,86.2 
		192.3,86.2 202.4,41.5 203,38.7 206.9,38.7 206.9,30.8 	"/>
</g>
</svg>
